<svg width="68" height="60" viewBox="0 0 68 60" fill="none" xmlns="http://www.w3.org/2000/svg">
<path d="M24.0868 44.4907L14.8783 53.7381C14.1857 54.4317 14.1857 55.5362 14.8783 56.2298C15.2118 56.5637 15.6735 56.7436 16.1095 56.7436C16.5712 56.7436 17.0073 56.5637 17.3664 56.2298L26.5748 46.9823C27.2674 46.2888 27.2674 45.1842 26.5748 44.4907C25.8823 43.8228 24.7793 43.8228 24.0868 44.4907Z" fill="white"/>
<path d="M58.2485 54.4322L38.8056 34.807L41.5758 32.0071C44.0639 33.497 47.2445 33.7025 48.7322 33.7025C49.0913 33.7025 49.3478 33.6768 49.4761 33.6768C49.9634 33.6511 50.4251 33.3942 50.7586 33.0089L58.3511 23.2991C58.9667 22.5284 58.8128 21.4239 58.0689 20.8331C57.2994 20.2166 56.1965 20.3707 55.6065 21.1156L48.5014 30.1833C47.3728 30.1576 45.6285 29.9778 44.1921 29.387L54.2727 19.3175C54.9396 18.6239 54.9396 17.5194 54.2727 16.8258C53.5801 16.158 52.4772 16.158 51.7846 16.8258L41.704 26.921C41.1397 25.5082 40.9602 23.7614 40.9345 22.6055L50.143 15.5158C50.9125 14.925 51.0664 13.8204 50.4764 13.0498C49.8608 12.2792 48.7579 12.125 47.9884 12.7158L38.113 20.345C37.7282 20.6533 37.4718 21.1156 37.4461 21.6294C37.4205 22.1688 37.2409 26.4329 39.1134 29.5411L36.3175 32.3153L17.0798 12.8957C16.772 12.5617 16.3103 12.3562 15.8485 12.3562C15.3868 12.3562 14.9251 12.5617 14.5917 12.87L14.3352 13.1525C14.053 13.4351 13.8735 13.8204 13.8222 14.2314C13.788 14.7623 13.7709 15.3017 13.7709 15.8497C13.7965 21.7064 16.695 28.5393 22.3894 36.1941C26.5191 41.794 30.6231 45.6985 30.777 45.8783C31.1618 46.2122 31.6748 46.3921 32.1878 46.3407L35.6506 45.9554C36.6253 45.8269 37.3178 44.9792 37.2152 44.0031C37.087 43.027 36.2149 42.3334 35.2658 42.4619L32.6238 42.7444C29.9819 40.0986 19.1318 28.6164 17.4902 18.29L55.7604 56.9239C56.0939 57.2578 56.5556 57.4376 57.0173 57.4376C57.4533 57.4376 57.8894 57.2578 58.2485 56.9239C58.941 56.2303 58.941 55.1258 58.2485 54.4322Z" fill="white"/>
<path d="M12.3645 59.6205C11.9797 59.6205 11.6206 59.4664 11.3128 59.2095C4.20766 52.762 0.129272 43.5659 0.129272 33.9845C0.129272 15.2326 15.3399 0 34.0646 0C52.7893 0 68 15.2326 68 33.9845C68 42.076 64.5628 50.2703 58.3041 57.0261C57.7142 57.6682 56.7138 57.6939 56.0726 57.1031C55.457 56.5123 55.4057 55.5105 55.9956 54.8683C61.7156 48.7033 64.8706 41.2797 64.8706 33.9845C64.8706 16.9794 51.0451 3.13386 34.0646 3.13386C17.0841 3.13386 3.2586 16.9794 3.2586 33.9845C3.2586 42.6925 6.9779 51.0409 13.4161 56.8719C14.0574 57.4628 14.1087 58.4389 13.5187 59.0811C13.2109 59.4407 12.8005 59.6205 12.3645 59.6205Z" fill="white"/>
</svg>
